<svg width="168" height="34" fill="none" xmlns="http://www.w3.org/2000/svg"><path d="M0 18.74l5.024 3.013 5.027 3.013 5.024 3.017 5.024 3.014 5.024-3.014-5.024-3.017-5.024-3.013-5.024-3.014v-6.03l-5.027 3.014L0 18.739zm20.099-6.03V6.68l-5.024 3.016-5.024 3.013 5.024 3.014 5.024 3.016 5.024 3.014 5.024-3.014-5.024-3.016-5.024-3.014z" fill="#fff"/><path d="M34.58 8.639c-.29-.74-1.366-1.664-3.225-2.768-1.929-1.149-3.511-1.765-4.747-1.853-1.237-.088-2.325.15-3.26.717l-3.25 1.95 10.065 5.987 3.007-1.806c1.23-.746 1.699-1.488 1.41-2.227zm19.137 16.137H45v-14.53h8.379v2.664h-5.105v3.234h4.754V18.8h-4.754v3.326h5.443v2.65zm15.4 0h-3.566l-1.033-3.235h-5.17l-1.026 3.235h-3.547l5.288-14.53h3.884l5.17 14.53zm-5.352-5.748l-1.559-4.884a6.093 6.093 0 01-.24-1.306h-.085a5.343 5.343 0 01-.253 1.267l-1.578 4.923h3.715zm6.502 5.189v-3.24a6.204 6.204 0 001.916 1.11 6.14 6.14 0 002.085.37c.409 0 .773-.039 1.078-.11.305-.072.565-.176.773-.312a1.32 1.32 0 00.461-.468c.104-.181.15-.37.15-.584 0-.286-.079-.54-.24-.76a2.653 2.653 0 00-.663-.617 6.72 6.72 0 00-1-.546 31.008 31.008 0 00-1.248-.539c-1.136-.474-1.98-1.052-2.54-1.734-.558-.682-.837-1.507-.837-2.474 0-.754.15-1.41.454-1.949a3.845 3.845 0 011.24-1.344 5.554 5.554 0 011.82-.773A9.495 9.495 0 0175.905 10c.753 0 1.428.046 2.013.136a7.901 7.901 0 011.617.423v3.026a4.913 4.913 0 00-.792-.448 6.03 6.03 0 00-.89-.318 6.462 6.462 0 00-1.767-.247c-.37 0-.708.032-1.013.104a2.627 2.627 0 00-.773.299 1.52 1.52 0 00-.487.46 1.088 1.088 0 00-.169.605c0 .24.065.46.195.656.13.195.312.377.546.545.233.17.526.345.864.507.337.162.72.338 1.143.513.578.24 1.104.5 1.565.773.461.273.857.585 1.189.929.33.344.584.74.76 1.182.175.441.266.954.266 1.546 0 .811-.156 1.493-.461 2.039a3.752 3.752 0 01-1.254 1.338c-.526.344-1.143.584-1.838.734-.701.15-1.436.22-2.215.22-.799 0-1.552-.064-2.273-.2a6.831 6.831 0 01-1.864-.605zM93.52 10.24l-4.735 9.366v5.17H85.51V19.67l-4.61-9.423h3.742l2.338 5.423c.039.104.15.493.331 1.188h.04c.09-.487.194-.87.311-1.143l2.384-5.462h3.475v-.013zm1.883 14.536v-14.53h4.014c5.119 0 7.684 2.365 7.684 7.087 0 2.24-.708 4.046-2.13 5.403-1.423 1.364-3.326 2.04-5.71 2.04h-3.858zm1.709-12.996v11.45h2.169c1.903 0 3.391-.513 4.449-1.533 1.059-1.02 1.592-2.468 1.592-4.338 0-3.722-1.981-5.586-5.937-5.586h-2.273v.007zm27.663 12.996h-1.695v-9.75c0-.772.045-1.714.143-2.824h-.039c-.163.656-.306 1.123-.436 1.41l-4.968 11.164h-.832l-4.956-11.087c-.143-.325-.286-.818-.435-1.487h-.039c.052.578.085 1.533.085 2.844v9.73h-1.644v-14.53h2.248l4.455 10.133c.345.78.565 1.357.669 1.74h.059c.292-.799.526-1.39.701-1.786l4.553-10.093h2.131v14.536zm15.069 0h-1.884l-1.539-4.073h-6.164l-1.449 4.073h-1.896l5.573-14.53h1.76l5.599 14.53zm-3.982-5.605l-2.279-6.19a5.799 5.799 0 01-.221-.974h-.039a5.11 5.11 0 01-.234.974l-2.26 6.19h5.033zm16.537 5.605h-2.026l-2.429-4.073a8.896 8.896 0 00-.65-.967 3.637 3.637 0 00-.643-.656 2.246 2.246 0 00-.708-.37 2.91 2.91 0 00-.857-.117h-1.397v6.183h-1.702v-14.53h4.339c.637 0 1.221.079 1.76.241.54.156 1.001.403 1.397.727.396.325.701.728.929 1.208.221.481.331 1.046.331 1.696 0 .506-.078.974-.227 1.396-.15.422-.37.799-.65 1.13-.279.331-.617.61-1.013.845a4.97 4.97 0 01-1.332.538v.04c.241.11.455.233.637.37.182.136.351.305.513.493.162.189.325.403.481.643a37 37 0 01.532.838l2.715 4.365zm-8.716-12.996v5.267h2.312c.429 0 .818-.065 1.182-.195s.676-.312.935-.552c.267-.24.468-.533.618-.883.149-.351.22-.74.22-1.17 0-.779-.253-1.383-.753-1.818-.5-.435-1.234-.656-2.182-.656h-2.332v.007zm20.31 12.385c-1.071.565-2.409.851-4.014.851-2.065 0-3.721-.662-4.962-1.994-1.241-1.331-1.864-3.078-1.864-5.241 0-2.325.701-4.202 2.098-5.631 1.396-1.43 3.17-2.15 5.319-2.15 1.377 0 2.521.201 3.423.598v1.812c-1.039-.579-2.188-.87-3.442-.87-1.669 0-3.02.558-4.06 1.669-1.039 1.117-1.552 2.604-1.552 4.468 0 1.773.487 3.182 1.455 4.228.968 1.052 2.241 1.578 3.813 1.578 1.461 0 2.721-.324 3.793-.974v1.656h-.007z" fill="#fff"/></svg>