<svg width="168" height="34" viewBox="0 0 168 34" fill="none" xmlns="http://www.w3.org/2000/svg">
    <path d="M0 18.7393L5.02394 21.7529L10.051 24.7664L15.075 27.7831L20.0989 30.7966L25.1228 27.7831L20.0989 24.7664L15.075 21.7529L10.051 18.7393V12.7091L5.02394 15.7226L0 18.7393Z"
          fill="#00A9E0"/>
    <path d="M20.0989 12.7093V6.67908L15.075 9.69576L10.051 12.7093L15.075 15.7228L20.0989 18.7395L25.1228 21.753L30.1468 18.7395L25.1228 15.7228L20.0989 12.7093Z"
          fill="#00A9E0"/>
    <path d="M34.5793 8.63875C34.2899 7.89952 33.214 6.9747 31.3548 5.87057C29.4264 4.72241 27.844 4.10586 26.6077 4.01779C25.3713 3.92971 24.2829 4.16878 23.3485 4.73499L20.0989 6.6853L30.1625 12.6715L33.1699 10.8659C34.4 10.1204 34.8687 9.37798 34.5793 8.63875Z"
          fill="#00A9E0"/>
    <path d="M53.7167 24.7757H45V10.2467H53.3789V12.9096H48.2736V16.144H53.0282V18.8004H48.2736V22.1258H53.7167V24.7757Z"
          fill="#1B2C74"/>
    <path d="M69.117 24.7757H65.5511L64.5183 21.5412H59.3481L58.3218 24.7757H54.7754L60.0625 10.2467H63.9467L69.117 24.7757ZM63.7649 19.0277L62.206 14.1436C62.0891 13.7799 62.0111 13.3447 61.9657 12.8382H61.8812C61.8487 13.2668 61.7643 13.689 61.6279 14.1046L60.0496 19.0277H63.7649Z"
          fill="#1B2C74"/>
    <path d="M70.2666 24.2172V20.9763C70.8512 21.4699 71.4942 21.8401 72.1827 22.0869C72.8712 22.3337 73.5662 22.4571 74.2677 22.4571C74.6769 22.4571 75.0406 22.4182 75.3459 22.3467C75.6512 22.2753 75.911 22.1714 76.1189 22.035C76.3267 21.9051 76.4761 21.7492 76.58 21.5673C76.684 21.3855 76.7294 21.1971 76.7294 20.9828C76.7294 20.697 76.6515 20.4437 76.4891 20.2229C76.3267 20.0021 76.1059 19.7942 75.8266 19.6059C75.5473 19.4175 75.216 19.2357 74.8263 19.0603C74.4431 18.885 74.0274 18.7031 73.5792 18.5213C72.4425 18.0471 71.5981 17.4691 71.0396 16.7871C70.481 16.1052 70.2017 15.2803 70.2017 14.3126C70.2017 13.5592 70.3511 12.9032 70.6563 12.3641C70.9616 11.8186 71.3708 11.3704 71.8969 11.0197C72.423 10.669 73.0271 10.4092 73.7156 10.2468C74.4041 10.0844 75.1316 10 75.9045 10C76.658 10 77.3335 10.0455 77.9181 10.1364C78.5026 10.2273 79.0417 10.3702 79.5354 10.5586V13.5852C79.2951 13.4163 79.0287 13.2669 78.7429 13.137C78.4572 13.0071 78.1584 12.9032 77.8531 12.8188C77.5478 12.7343 77.249 12.6694 76.9438 12.6304C76.645 12.5914 76.3592 12.572 76.0864 12.572C75.7161 12.572 75.3784 12.6044 75.0731 12.6759C74.7678 12.7473 74.5145 12.8447 74.3002 12.9746C74.0923 13.1045 73.9299 13.2539 73.813 13.4358C73.6961 13.6176 73.6442 13.819 73.6442 14.0398C73.6442 14.2801 73.7091 14.5009 73.839 14.6958C73.9689 14.8906 74.1508 15.0725 74.3846 15.2414C74.6185 15.4102 74.9107 15.5856 75.2485 15.7479C75.5862 15.9103 75.9695 16.0857 76.3917 16.261C76.9697 16.5013 77.4959 16.7611 77.957 17.0339C78.4182 17.3067 78.8144 17.6185 79.1457 17.9627C79.4769 18.3069 79.7302 18.7031 79.9056 19.1448C80.081 19.5864 80.1719 20.0995 80.1719 20.6905C80.1719 21.5024 80.016 22.1843 79.7107 22.7299C79.4055 23.282 78.9833 23.7236 78.4572 24.0679C77.931 24.4121 77.314 24.6524 76.619 24.8018C75.9175 24.9512 75.1835 25.0226 74.4041 25.0226C73.6052 25.0226 72.8517 24.9577 72.1308 24.8213C71.4163 24.6914 70.7927 24.4835 70.2666 24.2172Z"
          fill="#1B2C74"/>
    <path d="M93.5197 10.2402L88.7847 19.6058V24.7757H85.5111V19.6707L80.8994 10.2467H84.6407L86.979 15.6699C87.018 15.7738 87.1284 16.1635 87.3102 16.8585H87.3492C87.4402 16.3714 87.5441 15.9882 87.661 15.7154L90.0448 10.2532H93.5197V10.2402Z"
          fill="#1B2C74"/>
    <path d="M95.4033 24.7757V10.2467H99.4174C104.536 10.2467 107.101 12.6108 107.101 17.3326C107.101 19.5733 106.393 21.3789 104.971 22.7363C103.548 24.1002 101.645 24.7757 99.2615 24.7757H95.4033ZM97.1116 11.7795V23.2299H99.281C101.184 23.2299 102.672 22.7168 103.73 21.6971C104.789 20.6774 105.322 19.2291 105.322 17.3586C105.322 13.637 103.341 11.773 99.3849 11.773H97.1116V11.7795Z"
          fill="#00A9E0"/>
    <path d="M124.775 24.7757H123.08V15.0269C123.08 14.254 123.125 13.3123 123.223 12.2017H123.184C123.021 12.8577 122.878 13.3253 122.748 13.6111L117.78 24.7757H116.948L111.992 13.689C111.849 13.3643 111.706 12.8706 111.557 12.2017H111.518C111.57 12.7797 111.603 13.7345 111.603 15.0464V24.7757H109.959V10.2467H112.207L116.662 20.3787C117.007 21.1581 117.227 21.7361 117.331 22.1193H117.39C117.682 21.3204 117.916 20.7294 118.091 20.3332L122.644 10.2402H124.775V24.7757Z"
          fill="#00A9E0"/>
    <path d="M139.844 24.7757H137.96L136.421 20.7034H130.257L128.808 24.7757H126.912L132.485 10.2467H134.245L139.844 24.7757ZM135.862 19.1706L133.583 12.981C133.511 12.7797 133.433 12.455 133.362 12.0068H133.323C133.258 12.416 133.18 12.7407 133.089 12.981L130.829 19.1706H135.862Z"
          fill="#00A9E0"/>
    <path d="M152.399 24.7757H150.373L147.944 20.7034C147.723 20.3267 147.502 20.002 147.294 19.7357C147.086 19.4694 146.872 19.2486 146.651 19.0797C146.43 18.9108 146.196 18.7874 145.943 18.7095C145.69 18.6316 145.404 18.5926 145.086 18.5926H143.689V24.7757H141.987V10.2467H146.326C146.963 10.2467 147.547 10.3246 148.086 10.487C148.626 10.6429 149.087 10.8897 149.483 11.2144C149.879 11.5392 150.184 11.9419 150.412 12.4225C150.633 12.9031 150.743 13.4681 150.743 14.1176C150.743 14.6242 150.665 15.0919 150.516 15.514C150.366 15.9362 150.146 16.3129 149.866 16.6441C149.587 16.9754 149.249 17.2546 148.853 17.4885C148.457 17.7223 148.015 17.9041 147.521 18.0275V18.0665C147.762 18.1769 147.976 18.3003 148.158 18.4367C148.34 18.5731 148.509 18.742 148.671 18.9303C148.833 19.1187 148.996 19.333 149.152 19.5733C149.308 19.8136 149.489 20.0929 149.684 20.4111L152.399 24.7757ZM143.683 11.7795V17.0468H145.995C146.424 17.0468 146.813 16.9819 147.177 16.852C147.541 16.7221 147.853 16.5402 148.112 16.2999C148.379 16.0596 148.58 15.7673 148.73 15.4166C148.879 15.0659 148.95 14.6762 148.95 14.2475C148.95 13.4681 148.697 12.8641 148.197 12.429C147.697 11.9938 146.963 11.773 146.015 11.773H143.683V11.7795Z"
          fill="#00A9E0"/>
    <path d="M163.993 24.1653C162.922 24.7303 161.584 25.0161 159.979 25.0161C157.914 25.0161 156.258 24.3536 155.017 23.0222C153.776 21.6907 153.153 19.9436 153.153 17.7808C153.153 15.4557 153.854 13.5787 155.251 12.1498C156.647 10.7209 158.421 10 160.57 10C161.947 10 163.091 10.2013 163.993 10.5975V12.4096C162.954 11.8315 161.805 11.5393 160.551 11.5393C158.882 11.5393 157.531 12.0978 156.491 13.2085C155.452 14.3256 154.939 15.8129 154.939 17.6769C154.939 19.45 155.426 20.8594 156.394 21.9051C157.362 22.9572 158.635 23.4833 160.207 23.4833C161.668 23.4833 162.928 23.1586 164 22.5091V24.1653H163.993Z"
          fill="#00A9E0"/>
</svg>
